<?xml version="1.0" encoding="UTF-8"?>
<svg id="Layer_1" xmlns="http://www.w3.org/2000/svg" version="1.1" viewBox="0 0 31.2 31.2">
  <!-- Generator: Adobe Illustrator 30.1.0, SVG Export Plug-In . SVG Version: 2.1.1 Build 136)  -->
  <defs>
    <style>
      .st0 {
        fill: #eb1000;
      }

      .st1 {
        fill: #fff;
      }
    </style>
  </defs>
  <path class="st1" d="M25.68,0H5.52C2.47,0,0,2.56,0,5.73v19.74c0,3.16,2.47,5.73,5.52,5.73h20.15c3.05,0,5.52-2.56,5.52-5.73V5.73c0-3.16-2.47-5.73-5.52-5.73h.01Z"/>
  <path class="st0" d="M24.19,23.69h-3.63c-.16,0-.31-.04-.45-.13-.13-.09-.24-.22-.3-.37l-3.94-9.63s-.03-.07-.06-.09c-.03-.02-.07-.04-.1-.04-.04,0-.07.01-.1.03-.03.02-.05.06-.06.09l-2.46,6.11s-.02.07-.02.1c0,.04.01.07.03.1.02.03.04.05.08.07s.06.03.1.03h2.7c.08,0,.16.03.23.07.07.05.12.11.15.19l1.18,2.75c.03.08.04.16.04.24s-.03.16-.08.23c-.04.07-.1.13-.18.17-.07.04-.15.06-.23.06H7.25c-.07,0-.15-.02-.21-.06-.06-.04-.12-.09-.16-.15s-.07-.14-.07-.22,0-.15.03-.23l6.26-15.55c.06-.16.17-.31.32-.4.14-.1.31-.15.48-.15h3.61c.17,0,.34.05.48.15s.25.24.32.4l6.3,15.55c.03.07.04.15.03.22,0,.08-.03.15-.07.22-.04.06-.1.12-.16.15-.06.04-.14.06-.21.06v.03Z"/>
</svg>